<svg version="1.2" xmlns="http://www.w3.org/2000/svg" viewBox="0 0 660 541" width="660" height="541">
	<defs>
		<clipPath clipPathUnits="userSpaceOnUse" id="cp1">
			<path d="m944 2084h-1200v-1200h1200z"/>
		</clipPath>
		<clipPath clipPathUnits="userSpaceOnUse" id="cp2">
			<path d="m944 857h-1200v-1200h1200z"/>
		</clipPath>
	</defs>
	<style>
		.s0 { fill: #ffffff } 
		.s1 { fill: #1a1a1a } 
		.s2 { fill: #333333 } 
		.s3 { fill: #f9f4f4 } 
	</style>
	<g id="_Artboards_">
		<path id="Artboard 1" class="s0" d="m-256 857h1200v-1200h-1200z"/>
		<path id="Artboard 2" class="s0" d="m964 857h1200v-1200h-1200z"/>
		<path id="Artboard 3" class="s0" d="m2184 857h1200v-1200h-1200z"/>
		<path id="Artboard 1 copy" class="s0" d="m-256 2084h1200v-1200h-1200z"/>
		<path id="Artboard 2 copy" class="s0" d="m964 2084h1200v-1200h-1200z"/>
		<path id="Artboard 3 copy" class="s0" d="m2184 2084h1200v-1200h-1200z"/>
		<path id="Artboard 7" class="s0" d="m3404 2084h1200v-1200h-1200z"/>
		<path id="Artboard 8" class="s0" d="m3404 857h1200v-1200h-1200z"/>
	</g>
	<g id="Layer 1">
		<path id="&lt;Path&gt;" class="s1" d="m2174 870h-1200v-1200h1200z"/>
		<g id="&lt;Clip Group&gt;" clip-path="url(#cp1)" style="opacity: .08">
			<g id="&lt;Group&gt;">
				<g id="&lt;Group&gt;">
					<path id="&lt;Path&gt;" class="s2" d="m1306.94 2308.65h-159.12v-438.17c0-135.85-110.52-246.37-246.36-246.37-135.85 0-246.37 110.52-246.37 246.37v438.17h-159.11v-438.17c0-223.59 181.89-405.48 405.48-405.48 223.58 0 405.48 181.89 405.48 405.48z"/>
				</g>
				<g id="&lt;Group&gt;">
					<path id="&lt;Path&gt;" class="s2" d="m575.54 2833c-223.59 0-405.48-181.9-405.48-405.48v-438.18h159.11v438.18c0 135.83 110.52 246.37 246.37 246.37 135.84 0 246.36-110.54 246.36-246.37v-438.18h159.11v438.18c0 223.58-181.89 405.48-405.47 405.48z"/>
				</g>
			</g>
		</g>
		<g id="&lt;Group&gt;">
			<g id="&lt;Group&gt;">
				<path id="&lt;Compound Path&gt;" class="s1" d="m134.67 1630.12q0 3.24 4.5 4.6 2.01 0.57 4.14 0.57 2.23 0 4.14-0.57 4.5-1.36 4.5-4.6 0-2.23-3.04-3.67-1.83-0.87-6.73-2.07-8.58-2.1-11.81-4.27-5.37-3.56-5.37-10.87 0-5.23 3.3-8.94 3-3.33 8.14-4.87 3.23-1 6.87-1 3.6 0 6.9 1 5.11 1.54 8.11 4.87 3.3 3.71 3.3 8.94h-9.67q0-3.2-4.5-4.57-1.91-0.56-4.14-0.56v-0.04q-2.13 0-4.14 0.6-4.5 1.37-4.5 4.57 0 2.27 3.07 3.7 1.83 0.87 6.7 2.07 8.61 2.1 11.81 4.24 5.37 3.6 5.37 10.87 0 5.24-3.3 8.94-3 3.37-8.11 4.9-3.3 1-6.9 1v-0.03q-3.64 0-6.87-0.97-5.14-1.53-8.14-4.9-3.3-3.7-3.3-8.94z"/>
				<path id="&lt;Compound Path&gt;" fill-rule="evenodd" class="s1" d="m209.35 1598.8q5.6 3.97 8.3 10.74 1.93 4.84 1.93 10.14 0 5.3-1.93 10.17-2.7 6.77-8.3 10.74-6.18 4.37-14.75 4.37-8.53 0-14.74-4.37-5.6-3.97-8.3-10.74-1.94-4.87-1.94-10.17 0-5.3 1.94-10.14 2.7-6.77 8.3-10.74 6.21-4.37 14.74-4.37 8.57 0 14.75 4.37zm-5.67 7.91q-3.81-2.6-9.08-2.6-5.27 0-9.03 2.6-3.44 2.37-5.04 6.43-1.23 3.04-1.23 6.54 0 3.5 1.23 6.57 1.6 4.04 5.04 6.4 3.76 2.64 9.03 2.64 5.27 0 9.08-2.64 3.4-2.36 5.03-6.4 1.2-3.07 1.2-6.57 0-3.5-1.2-6.54-1.63-4.06-5.03-6.43z"/>
				<path id="&lt;Compound Path&gt;" class="s1" d="m272.94 1595.47v26.78q0 9.4-6.63 16.04-6.64 6.64-16.04 6.64-9.41 0-16.05-6.64-6.63-6.64-6.63-16.04v-26.78h9.67v26.78q0 5.4 3.8 9.2 3.84 3.84 9.21 3.84 5.4 0 9.2-3.84 3.8-3.8 3.8-9.2h0.04v-26.78z"/>
				<path id="&lt;Compound Path&gt;" class="s1" d="m291.96 1595.5v38.69h25.04v9.67h-34.72v-48.36z"/>
				<path id="&lt;Compound Path&gt;" class="s1" d="m372.93 1605.17q-2.73-1.06-5.73-1.06-6.44 0-11.01 4.57-4.57 4.56-4.57 11 0 6.47 4.57 11.04 4.57 4.57 11.01 4.57 3 0 5.73-1.1 2.8-1.1 4.94-3.1l6.57 7.03q-3.54 3.34-7.94 5.07-4.47 1.77-9.3 1.77-10.45 0-17.85-7.4-7.4-7.41-7.4-17.88 0-10.44 7.4-17.84 7.4-7.41 17.85-7.41 4.83 0 9.3 1.77 4.4 1.74 7.94 5.07l-6.57 7.04q-2.14-2-4.94-3.14z"/>
				<path id="&lt;Compound Path&gt;" fill-rule="evenodd" class="s1" d="m392.44 1643.86v-48.33h18.38v-0.03q6.94 0 11.81 2.97 4.43 2.7 6.57 7.37 1.63 3.54 1.56 7.54-0.03 3.93-1.66 7.5-3.04 6.71-10.78 9.61 1.74 0.83 3.44 2.73l9.3 10.64h-12.84l-10.27-11.74h-5.84v11.74zm9.68-38.72v17.38h8.7q6.97 0 9.51-5.61 0.8-1.8 0.83-3.63 0-1.84-0.7-3.4-2.17-4.71-9.64-4.71v-0.03z"/>
				<path id="&lt;Compound Path&gt;" fill-rule="evenodd" class="s1" d="m434.83 1643.86l23.98-50.43 23.98 50.43h-10.57l-3.77-7.94h-19.28l-3.77 7.94zm30.12-15.31l-2.97-6.23q-1-2.11-3.17-7.38-0.53 1.14-1.53 3.61-1 2.43-1.57 3.67l-3.03 6.33z"/>
				<path id="&lt;Compound Path&gt;" class="s1" d="m522.31 1605.17h-23.85v8.47h21.32v9.68h-21.32v20.54h-9.67v-48.36h33.52z"/>
				<path id="&lt;Compound Path&gt;" class="s1" d="m549.89 1605.17v38.69h-9.67v-38.69h-13.11v-9.67h35.89v9.67z"/>
			</g>
			<g id="&lt;Group&gt;">
				<g id="&lt;Group&gt;">
					<path id="&lt;Path&gt;" class="s1" d="m438.31 1464.86h-26.74v-73.66c0-22.84-18.58-41.41-41.42-41.41-22.83 0-41.41 18.57-41.41 41.41v73.66h-26.75v-73.66c0-37.59 30.58-68.16 68.16-68.16 37.59 0 68.16 30.57 68.16 68.16z"/>
				</g>
				<g id="&lt;Group&gt;">
					<path id="&lt;Path&gt;" class="s1" d="m315.36 1553c-37.58 0-68.16-30.58-68.16-68.16v-73.66h26.75v73.66c0 22.83 18.58 41.41 41.41 41.41 22.84 0 41.42-18.58 41.42-41.41v-73.66h26.75v73.66c0 37.58-30.58 68.16-68.17 68.16z"/>
				</g>
			</g>
		</g>
		<g id="&lt;Clip Group&gt;" clip-path="url(#cp2)" style="opacity: .08">
			<g id="&lt;Group&gt;">
				<g id="&lt;Group&gt;">
					<path id="&lt;Path&gt;" class="s2" d="m1306.94 1081.65h-159.12v-438.17c0-135.85-110.52-246.37-246.36-246.37-135.85 0-246.37 110.52-246.37 246.37v438.17h-159.11v-438.17c0-223.59 181.89-405.48 405.48-405.48 223.58 0 405.48 181.89 405.48 405.48z"/>
				</g>
				<g id="&lt;Group&gt;">
					<path id="&lt;Path&gt;" class="s2" d="m575.54 1606c-223.59 0-405.48-181.9-405.48-405.48v-438.18h159.11v438.18c0 135.83 110.52 246.37 246.37 246.37 135.84 0 246.36-110.54 246.36-246.37v-438.18h159.11v438.18c0 223.58-181.89 405.48-405.47 405.48z"/>
				</g>
			</g>
		</g>
		<path id="&lt;Path&gt;" class="s1" d="m2161.5 2084.5h-1200v-1200h1200z"/>
		<g id="&lt;Group&gt;">
			<g id="&lt;Group&gt;">
				<path id="&lt;Path&gt;" class="s1" d="m4099.56 1510.84h-26.75v-73.66c0-22.84-18.58-41.41-41.42-41.41-22.83 0-41.41 18.57-41.41 41.41v73.66h-26.75v-73.66c0-37.59 30.58-68.16 68.16-68.16 37.59 0 68.17 30.57 68.17 68.16z"/>
			</g>
			<g id="&lt;Group&gt;">
				<path id="&lt;Path&gt;" class="s1" d="m3976.61 1598.98c-37.59 0-68.17-30.58-68.17-68.16v-73.66h26.75v73.66c0 22.83 18.58 41.41 41.42 41.41 22.83 0 41.41-18.58 41.41-41.41v-73.66h26.75v73.66c0 37.58-30.58 68.16-68.16 68.16z"/>
			</g>
		</g>
		<g id="&lt;Group&gt;">
			<g id="&lt;Group&gt;">
				<path id="&lt;Path&gt;" class="s1" d="m3990.09 272.87v-47.58c0-22.84 18.57-41.41 41.41-41.41 22.84 0 41.41 18.57 41.41 41.41v47.58h26.75v-47.58c0-37.58-30.57-68.16-68.16-68.16-37.59 0-68.16 30.58-68.16 68.16v47.58z"/>
			</g>
			<g id="&lt;Group&gt;">
				<path id="&lt;Path&gt;" class="s1" d="m4017.91 241.13v47.58c0 22.84-18.57 41.41-41.41 41.41-22.84 0-41.41-18.57-41.41-41.41v-47.58h-26.75v47.58c0 37.58 30.57 68.16 68.16 68.16 37.59 0 68.16-30.58 68.16-68.16v-47.58z"/>
			</g>
		</g>
		<g id="&lt;Group&gt;">
			<g id="&lt;Group&gt;">
				<g id="&lt;Group&gt;">
					<path id="&lt;Compound Path&gt;" class="s1" d="m2621.73 271.16q0 4.19 5.83 5.96 2.6 0.74 5.36 0.74 2.9 0 5.36-0.74 5.84-1.77 5.84-5.96 0-2.9-3.93-4.76-2.38-1.12-8.74-2.68-11.11-2.72-15.3-5.53-6.96-4.63-6.96-14.09 0-6.79 4.28-11.59 3.89-4.32 10.55-6.31 4.19-1.3 8.9-1.3 4.67 0 8.95 1.3 6.62 1.99 10.51 6.31 4.28 4.8 4.28 11.59h-12.54q0-4.15-5.84-5.93-2.46-0.73-5.36-0.73v-0.04q-2.76-0.01-5.36 0.77-5.83 1.78-5.83 5.93 0 2.94 3.97 4.79 2.38 1.13 8.69 2.68 11.16 2.73 15.31 5.49 6.96 4.67 6.96 14.1 0 6.79-4.28 11.58-3.89 4.37-10.51 6.36-4.28 1.3-8.95 1.3v-0.05q-4.71 0-8.9-1.25-6.66-1.99-10.55-6.36-4.28-4.79-4.28-11.58z"/>
					<path id="&lt;Compound Path&gt;" fill-rule="evenodd" class="s1" d="m2718.52 230.57q7.26 5.14 10.77 13.91 2.5 6.27 2.5 13.15 0 6.87-2.5 13.18-3.51 8.78-10.77 13.92-8 5.67-19.11 5.67-11.06 0-19.11-5.67-7.26-5.14-10.76-13.92-2.51-6.31-2.51-13.18 0-6.88 2.51-13.15 3.5-8.77 10.76-13.91 8.05-5.67 19.11-5.67 11.11 0 19.11 5.67zm-7.35 10.24q-4.93-3.37-11.76-3.37-6.83 0-11.71 3.37-4.46 3.07-6.53 8.34-1.6 3.94-1.6 8.48 0 4.54 1.6 8.51 2.07 5.23 6.53 8.3 4.88 3.42 11.71 3.42 6.83 0 11.76-3.42 4.41-3.07 6.53-8.3 1.56-3.97 1.56-8.51 0-4.54-1.56-8.48-2.12-5.27-6.53-8.34z"/>
					<path id="&lt;Compound Path&gt;" class="s1" d="m2800.96 226.24v34.72q0 12.19-8.6 20.79-8.6 8.6-20.79 8.6-12.2 0-20.8-8.6-8.6-8.6-8.6-20.79v-34.72h12.53v34.72q0 7 4.93 11.93 4.97 4.97 11.94 4.97 7 0 11.93-4.97 4.92-4.93 4.92-11.93h0.05v-34.72z"/>
					<path id="&lt;Compound Path&gt;" class="s1" d="m2825.6 226.28v50.15h32.47v12.54h-45v-62.69z"/>
					<path id="&lt;Compound Path&gt;" class="s1" d="m2930.57 238.82q-3.55-1.38-7.44-1.38-8.34 0-14.26 5.92-5.93 5.92-5.93 14.27 0 8.38 5.93 14.31 5.92 5.92 14.26 5.92 3.89 0 7.44-1.43 3.63-1.42 6.4-4.02l8.51 9.12q-4.58 4.33-10.29 6.57-5.79 2.3-12.06 2.3-13.53 0-23.13-9.6-9.59-9.6-9.59-23.17 0-13.53 9.59-23.13 9.6-9.6 23.13-9.6 6.27 0 12.06 2.29 5.71 2.25 10.29 6.57l-8.51 9.13q-2.77-2.6-6.4-4.07z"/>
					<path id="&lt;Compound Path&gt;" fill-rule="evenodd" class="s1" d="m2955.86 288.97v-62.64h23.82v-0.05q8.99 0 15.3 3.85 5.75 3.5 8.52 9.56 2.12 4.58 2.03 9.77-0.04 5.1-2.16 9.72-3.94 8.69-13.97 12.45 2.25 1.08 4.46 3.55l12.06 13.79h-16.64l-13.32-15.22h-7.56v15.22zm12.53-50.19v22.52h11.29q9.03 0 12.32-7.26 1.03-2.34 1.08-4.71 0-2.38-0.91-4.41-2.81-6.1-12.49-6.1v-0.04z"/>
					<path id="&lt;Compound Path&gt;" fill-rule="evenodd" class="s1" d="m3010.8 288.97l31.09-65.37 31.08 65.37h-13.7l-4.89-10.29h-24.99l-4.88 10.29zm39.03-19.84l-3.84-8.09q-1.3-2.72-4.11-9.55-0.69 1.47-1.99 4.67-1.3 3.15-2.03 4.75l-3.93 8.22z"/>
					<path id="&lt;Compound Path&gt;" class="s1" d="m3124.2 238.82h-30.91v10.98h27.62v12.54h-27.62v26.63h-12.54v-62.69h43.45z"/>
					<path id="&lt;Compound Path&gt;" class="s1" d="m3159.95 238.82v50.15h-12.54v-50.15h-16.99v-12.54h46.52v12.54z"/>
				</g>
			</g>
			<g id="&lt;Group&gt;">
				<g id="&lt;Group&gt;">
					<path id="&lt;Path&gt;" class="s1" d="m2458.75 270.14v-39.4c0-18.9 15.38-34.29 34.29-34.29 18.91 0 34.29 15.39 34.29 34.29v39.4h22.15v-39.4c0-31.12-25.32-56.43-56.44-56.43-31.12 0-56.44 25.31-56.44 56.43v39.4z"/>
				</g>
				<g id="&lt;Group&gt;">
					<path id="&lt;Path&gt;" class="s1" d="m2481.79 243.86v39.4c0 18.9-15.38 34.29-34.29 34.29-18.91 0-34.29-15.39-34.29-34.29v-39.4h-22.15v39.4c0 31.12 25.32 56.43 56.44 56.43 31.12 0 56.44-25.31 56.44-56.43v-39.4z"/>
				</g>
			</g>
		</g>
		<g id="&lt;Group&gt;">
			<g id="&lt;Group&gt;">
				<path id="&lt;Compound Path&gt;" class="s1" d="m134.67 403.12q0 3.24 4.5 4.6 2.01 0.57 4.14 0.57 2.23 0 4.14-0.57 4.5-1.36 4.5-4.6 0-2.23-3.04-3.67-1.83-0.87-6.73-2.07-8.58-2.1-11.81-4.27-5.37-3.56-5.37-10.87 0-5.23 3.3-8.94 3-3.33 8.14-4.87 3.23-1 6.87-1 3.6 0 6.9 1 5.11 1.54 8.11 4.87 3.3 3.71 3.3 8.94h-9.67q0-3.2-4.5-4.57-1.91-0.56-4.14-0.56v-0.04q-2.13 0-4.14 0.6-4.5 1.37-4.5 4.57 0 2.27 3.07 3.7 1.83 0.87 6.7 2.07 8.61 2.1 11.81 4.24 5.37 3.6 5.37 10.87 0 5.24-3.3 8.94-3 3.37-8.11 4.9-3.3 1-6.9 1v-0.03q-3.64 0-6.87-0.97-5.14-1.53-8.14-4.9-3.3-3.7-3.3-8.94z"/>
				<path id="&lt;Compound Path&gt;" fill-rule="evenodd" class="s1" d="m209.35 371.8q5.6 3.97 8.3 10.74 1.93 4.84 1.93 10.14 0 5.3-1.93 10.17-2.7 6.77-8.3 10.74-6.18 4.37-14.75 4.37-8.53 0-14.74-4.37-5.6-3.97-8.3-10.74-1.94-4.87-1.94-10.17 0-5.3 1.94-10.14 2.7-6.77 8.3-10.74 6.21-4.37 14.74-4.37 8.57 0 14.75 4.37zm-5.67 7.91q-3.81-2.6-9.08-2.6-5.27 0-9.03 2.6-3.44 2.37-5.04 6.43-1.23 3.04-1.23 6.54 0 3.5 1.23 6.57 1.6 4.04 5.04 6.4 3.76 2.64 9.03 2.64 5.27 0 9.08-2.64 3.4-2.36 5.03-6.4 1.2-3.07 1.2-6.57 0-3.5-1.2-6.54-1.63-4.06-5.03-6.43z"/>
				<path id="&lt;Compound Path&gt;" class="s1" d="m272.94 368.47v26.78q0 9.4-6.63 16.04-6.64 6.64-16.04 6.64-9.41 0-16.05-6.64-6.63-6.64-6.63-16.04v-26.78h9.67v26.78q0 5.4 3.8 9.2 3.84 3.84 9.21 3.84 5.4 0 9.2-3.84 3.8-3.8 3.8-9.2h0.04v-26.78z"/>
				<path id="&lt;Compound Path&gt;" class="s1" d="m291.96 368.5v38.69h25.04v9.67h-34.72v-48.36z"/>
				<path id="&lt;Compound Path&gt;" class="s1" d="m372.93 378.17q-2.73-1.06-5.73-1.06-6.44 0-11.01 4.57-4.57 4.56-4.57 11 0 6.47 4.57 11.04 4.57 4.57 11.01 4.57 3 0 5.73-1.1 2.8-1.1 4.94-3.1l6.57 7.03q-3.54 3.34-7.94 5.07-4.47 1.77-9.3 1.77-10.45 0-17.85-7.4-7.4-7.41-7.4-17.88 0-10.44 7.4-17.84 7.4-7.41 17.85-7.41 4.83 0 9.3 1.77 4.4 1.74 7.94 5.07l-6.57 7.04q-2.14-2-4.94-3.14z"/>
				<path id="&lt;Compound Path&gt;" fill-rule="evenodd" class="s1" d="m396.44 412.86v-48.33h18.38v-0.03q6.94 0 11.81 2.97 4.43 2.7 6.57 7.37 1.63 3.54 1.56 7.54-0.03 3.93-1.66 7.5-3.04 6.71-10.78 9.61 1.74 0.83 3.44 2.73l9.3 10.64h-12.84l-10.27-11.74h-5.84v11.74zm9.68-38.72v17.38h8.7q6.97 0 9.51-5.61 0.8-1.8 0.83-3.63 0-1.84-0.7-3.4-2.17-4.71-9.64-4.71v-0.03z"/>
				<path id="&lt;Compound Path&gt;" fill-rule="evenodd" class="s1" d="m434.83 416.86l23.98-50.43 23.98 50.43h-10.57l-3.77-7.94h-19.28l-3.77 7.94zm30.12-15.31l-2.97-6.23q-1-2.11-3.17-7.38-0.53 1.14-1.53 3.61-1 2.43-1.57 3.67l-3.03 6.33z"/>
				<path id="&lt;Compound Path&gt;" class="s1" d="m522.31 378.17h-23.85v8.47h21.32v9.68h-21.32v20.54h-9.67v-48.36h33.52z"/>
				<path id="&lt;Compound Path&gt;" class="s1" d="m549.89 378.17v38.69h-9.67v-38.69h-13.11v-9.67h35.89v9.67z"/>
			</g>
			<g id="&lt;Group&gt;">
				<g id="&lt;Group&gt;">
					<path id="&lt;Path&gt;" class="s1" d="m327.92 221.73v-54.98c0-26.38 21.47-47.85 47.85-47.85 26.39 0 47.85 21.47 47.85 47.85v54.98h30.91v-54.98c0-43.42-35.33-78.75-78.76-78.75-43.42 0-78.75 35.33-78.75 78.75v54.98z"/>
				</g>
				<g id="&lt;Group&gt;">
					<path id="&lt;Path&gt;" class="s1" d="m360.08 185.05v54.98c0 26.38-21.47 47.85-47.85 47.85-26.39 0-47.85-21.47-47.85-47.85v-54.98h-30.91v54.98c0 43.42 35.33 78.75 78.76 78.75 43.42 0 78.75-35.33 78.75-78.75v-54.98z"/>
				</g>
			</g>
		</g>
		<g id="&lt;Group&gt;">
			<path id="&lt;Compound Path&gt;" class="s3" d="m1306.67 403.12q0 3.24 4.5 4.6 2.01 0.57 4.14 0.57 2.23 0 4.14-0.57 4.5-1.36 4.5-4.6 0-2.23-3.04-3.67-1.83-0.87-6.73-2.07-8.58-2.1-11.81-4.27-5.37-3.56-5.37-10.87 0-5.23 3.3-8.94 3-3.33 8.14-4.87 3.23-1 6.87-1 3.6 0 6.9 1 5.11 1.54 8.11 4.87 3.3 3.71 3.3 8.94h-9.67q0-3.2-4.5-4.57-1.91-0.56-4.14-0.56v-0.04q-2.13 0-4.14 0.6-4.5 1.37-4.5 4.57 0 2.27 3.07 3.7 1.83 0.87 6.7 2.07 8.61 2.1 11.81 4.24 5.37 3.6 5.37 10.87 0 5.24-3.3 8.94-3 3.37-8.11 4.9-3.3 1-6.9 1v-0.03q-3.64 0-6.87-0.97-5.14-1.53-8.14-4.9-3.3-3.7-3.3-8.94z"/>
			<path id="&lt;Compound Path&gt;" fill-rule="evenodd" class="s3" d="m1381.35 371.8q5.6 3.97 8.3 10.74 1.93 4.84 1.93 10.14 0 5.3-1.93 10.17-2.7 6.77-8.3 10.74-6.18 4.37-14.75 4.37-8.53 0-14.74-4.37-5.6-3.97-8.3-10.74-1.94-4.87-1.94-10.17 0-5.3 1.94-10.14 2.7-6.77 8.3-10.74 6.21-4.37 14.74-4.37 8.57 0 14.75 4.37zm-5.67 7.91q-3.81-2.6-9.08-2.6-5.27 0-9.03 2.6-3.44 2.37-5.04 6.43-1.23 3.04-1.23 6.54 0 3.5 1.23 6.57 1.6 4.04 5.04 6.4 3.76 2.64 9.03 2.64 5.27 0 9.08-2.64 3.4-2.36 5.03-6.4 1.2-3.07 1.2-6.57 0-3.5-1.2-6.54-1.63-4.06-5.03-6.43z"/>
			<path id="&lt;Compound Path&gt;" class="s3" d="m1444.94 368.47v26.78q0 9.4-6.63 16.04-6.64 6.64-16.04 6.64-9.41 0-16.05-6.64-6.63-6.64-6.63-16.04v-26.78h9.67v26.78q0 5.4 3.8 9.2 3.84 3.84 9.21 3.84 5.4 0 9.2-3.84 3.8-3.8 3.8-9.2h0.04v-26.78z"/>
			<path id="&lt;Compound Path&gt;" class="s3" d="m1463.96 368.5v38.69h25.04v9.67h-34.72v-48.36z"/>
			<path id="&lt;Compound Path&gt;" class="s3" d="m1544.93 378.17q-2.73-1.06-5.73-1.06-6.44 0-11.01 4.57-4.57 4.56-4.57 11 0 6.47 4.57 11.04 4.57 4.57 11.01 4.57 3 0 5.73-1.1 2.8-1.1 4.94-3.1l6.57 7.03q-3.54 3.34-7.94 5.07-4.47 1.77-9.3 1.77-10.45 0-17.85-7.4-7.4-7.41-7.4-17.88 0-10.44 7.4-17.84 7.4-7.41 17.85-7.41 4.83 0 9.3 1.77 4.4 1.74 7.94 5.07l-6.57 7.04q-2.14-2-4.94-3.14z"/>
			<path id="&lt;Compound Path&gt;" fill-rule="evenodd" class="s3" d="m1564.44 416.86v-48.33h18.38v-0.03q6.94 0 11.81 2.97 4.43 2.7 6.57 7.37 1.63 3.54 1.56 7.54-0.03 3.93-1.66 7.5-3.04 6.71-10.78 9.61 1.74 0.83 3.44 2.73l9.3 10.64h-12.84l-10.27-11.74h-5.84v11.74zm9.68-38.72v17.38h8.7q6.97 0 9.51-5.61 0.8-1.8 0.83-3.63 0-1.84-0.7-3.4-2.17-4.71-9.64-4.71v-0.03z"/>
			<path id="&lt;Compound Path&gt;" fill-rule="evenodd" class="s3" d="m1606.83 416.86l23.98-50.43 23.98 50.43h-10.57l-3.77-7.94h-19.28l-3.77 7.94zm30.12-15.31l-2.97-6.23q-1-2.11-3.17-7.38-0.53 1.14-1.53 3.61-1 2.43-1.57 3.67l-3.03 6.33z"/>
			<path id="&lt;Compound Path&gt;" class="s3" d="m1694.31 378.17h-23.85v8.47h21.32v9.68h-21.32v20.54h-9.67v-48.36h33.52z"/>
			<path id="&lt;Compound Path&gt;" class="s3" d="m1721.89 378.17v38.69h-9.67v-38.69h-13.11v-9.67h35.89v9.67z"/>
		</g>
		<g id="&lt;Group&gt;">
			<g id="&lt;Group&gt;">
				<path id="&lt;Path&gt;" class="s3" d="m1499.92 221.73v-54.98c0-26.38 21.47-47.85 47.85-47.85 26.39 0 47.85 21.47 47.85 47.85v54.98h30.91v-54.98c0-43.42-35.33-78.75-78.76-78.75-43.42 0-78.75 35.33-78.75 78.75v54.98z"/>
			</g>
			<g id="&lt;Group&gt;">
				<path id="&lt;Path&gt;" class="s3" d="m1532.08 185.05v54.98c0 26.38-21.47 47.85-47.85 47.85-26.39 0-47.85-21.47-47.85-47.85v-54.98h-30.91v54.98c0 43.42 35.33 78.75 78.76 78.75 43.42 0 78.75-35.33 78.75-78.75v-54.98z"/>
			</g>
		</g>
		<g id="&lt;Group&gt;">
			<g id="&lt;Group&gt;">
				<g id="&lt;Group&gt;">
					<path id="&lt;Compound Path&gt;" class="s3" d="m1366.29 1507.52q0 4.19 5.83 5.96 2.6 0.74 5.36 0.74 2.9 0 5.37-0.74 5.83-1.77 5.83-5.96 0-2.9-3.93-4.76-2.38-1.12-8.73-2.68-11.12-2.72-15.31-5.53-6.96-4.63-6.96-14.09 0-6.79 4.28-11.59 3.89-4.32 10.55-6.31 4.19-1.3 8.9-1.3 4.67 0 8.95 1.3 6.62 1.99 10.51 6.31 4.28 4.8 4.28 11.59h-12.54q0-4.15-5.83-5.93-2.47-0.73-5.37-0.73v-0.04q-2.76 0-5.36 0.77-5.83 1.78-5.83 5.93 0 2.94 3.98 4.79 2.37 1.13 8.68 2.69 11.16 2.72 15.31 5.49 6.96 4.66 6.96 14.09 0 6.79-4.28 11.58-3.89 4.37-10.51 6.36-4.28 1.3-8.95 1.3v-0.05q-4.71 0-8.9-1.25-6.66-1.99-10.55-6.36-4.28-4.79-4.28-11.58z"/>
					<path id="&lt;Compound Path&gt;" fill-rule="evenodd" class="s3" d="m1463.08 1466.93q7.26 5.14 10.77 13.91 2.5 6.27 2.5 13.15 0 6.87-2.5 13.18-3.51 8.78-10.77 13.92-8 5.67-19.11 5.67-11.06 0-19.1-5.67-7.27-5.14-10.77-13.92-2.51-6.31-2.51-13.18 0-6.88 2.51-13.15 3.5-8.77 10.77-13.91 8.04-5.67 19.1-5.67 11.11 0 19.11 5.67zm-7.35 10.24q-4.93-3.37-11.76-3.37-6.83 0-11.71 3.37-4.45 3.07-6.53 8.34-1.6 3.94-1.6 8.48 0 4.54 1.6 8.51 2.08 5.23 6.53 8.3 4.88 3.42 11.71 3.42 6.83 0 11.76-3.42 4.41-3.07 6.53-8.3 1.56-3.97 1.56-8.51 0-4.54-1.56-8.48-2.12-5.27-6.53-8.34z"/>
					<path id="&lt;Compound Path&gt;" class="s3" d="m1545.52 1462.6v34.72q0 12.19-8.6 20.79-8.6 8.6-20.79 8.6-12.2 0-20.8-8.6-8.6-8.6-8.6-20.79v-34.72h12.54v34.72q0 7 4.92 11.93 4.97 4.97 11.94 4.97 7 0 11.93-4.97 4.93-4.93 4.93-11.93h0.04v-34.72z"/>
					<path id="&lt;Compound Path&gt;" class="s3" d="m1570.16 1462.64v50.15h32.47v12.54h-45v-62.69z"/>
					<path id="&lt;Compound Path&gt;" class="s3" d="m1675.13 1475.18q-3.55-1.38-7.44-1.38-8.34 0-14.26 5.92-5.93 5.92-5.93 14.27 0 8.38 5.93 14.31 5.92 5.92 14.26 5.92 3.89 0 7.44-1.43 3.63-1.42 6.4-4.02l8.51 9.12q-4.58 4.33-10.29 6.57-5.79 2.3-12.06 2.3-13.53 0-23.13-9.6-9.59-9.6-9.59-23.17 0-13.53 9.59-23.13 9.6-9.6 23.13-9.6 6.27 0 12.06 2.29 5.71 2.25 10.29 6.57l-8.51 9.13q-2.77-2.6-6.4-4.07z"/>
					<path id="&lt;Compound Path&gt;" fill-rule="evenodd" class="s3" d="m1700.42 1525.33v-62.64h23.82v-0.05q8.99 0 15.3 3.85 5.75 3.51 8.52 9.56 2.12 4.58 2.03 9.77-0.04 5.1-2.16 9.72-3.94 8.69-13.96 12.45 2.24 1.09 4.45 3.55l12.06 13.79h-16.64l-13.32-15.22h-7.56v15.22zm12.53-50.19v22.52h11.29q9.03 0 12.32-7.26 1.03-2.33 1.08-4.71 0-2.38-0.91-4.41-2.81-6.1-12.49-6.1v-0.04z"/>
					<path id="&lt;Compound Path&gt;" fill-rule="evenodd" class="s3" d="m1755.36 1525.33l31.09-65.37 31.08 65.37h-13.7l-4.89-10.29h-24.99l-4.88 10.29zm39.03-19.84l-3.84-8.09q-1.3-2.72-4.11-9.55-0.69 1.47-1.99 4.67-1.3 3.15-2.03 4.75l-3.93 8.22z"/>
					<path id="&lt;Compound Path&gt;" class="s3" d="m1868.76 1475.18h-30.91v10.98h27.62v12.54h-27.62v26.63h-12.54v-62.69h43.45z"/>
					<path id="&lt;Compound Path&gt;" class="s3" d="m1904.51 1475.18v50.15h-12.54v-50.15h-16.99v-12.54h46.52v12.54z"/>
				</g>
			</g>
			<g id="&lt;Group&gt;">
				<g id="&lt;Group&gt;">
					<path id="&lt;Path&gt;" class="s3" d="m1312.1 1499.53h-15.48v-42.63c0-13.21-10.75-23.96-23.96-23.96-13.22 0-23.97 10.75-23.97 23.96v42.63h-15.48v-42.63c0-21.75 17.69-39.44 39.45-39.44 21.75 0 39.44 17.69 39.44 39.44z"/>
				</g>
				<g id="&lt;Group&gt;">
					<path id="&lt;Path&gt;" class="s3" d="m1240.95 1550.54c-21.75 0-39.45-17.69-39.45-39.44v-42.63h15.48v42.63c0 13.21 10.75 23.96 23.97 23.96 13.21 0 23.97-10.75 23.97-23.96v-42.63h15.48v42.63c0 21.75-17.7 39.44-39.45 39.44z"/>
				</g>
			</g>
		</g>
		<g id="&lt;Group&gt;">
			<g id="&lt;Group&gt;">
				<g id="&lt;Group&gt;">
					<path id="&lt;Compound Path&gt;" class="s1" d="m2588.79 1507.52q0 4.19 5.83 5.96 2.6 0.74 5.36 0.74 2.9 0 5.37-0.74 5.83-1.77 5.83-5.96 0-2.9-3.93-4.76-2.38-1.12-8.73-2.68-11.12-2.72-15.31-5.53-6.96-4.63-6.96-14.09 0-6.79 4.28-11.59 3.89-4.32 10.55-6.31 4.19-1.3 8.9-1.3 4.67 0 8.95 1.3 6.62 1.99 10.51 6.31 4.28 4.8 4.28 11.59h-12.54q0-4.15-5.83-5.93-2.47-0.73-5.37-0.73v-0.04q-2.76 0-5.36 0.77-5.83 1.78-5.83 5.93 0 2.94 3.98 4.79 2.37 1.13 8.68 2.69 11.16 2.72 15.31 5.49 6.96 4.66 6.96 14.09 0 6.79-4.28 11.58-3.89 4.37-10.51 6.36-4.28 1.3-8.95 1.3v-0.05q-4.71 0-8.9-1.25-6.66-1.99-10.55-6.36-4.28-4.79-4.28-11.58z"/>
					<path id="&lt;Compound Path&gt;" fill-rule="evenodd" class="s1" d="m2685.58 1466.93q7.26 5.14 10.77 13.91 2.5 6.27 2.5 13.15 0 6.87-2.5 13.18-3.51 8.78-10.77 13.92-8 5.67-19.11 5.67-11.06 0-19.1-5.67-7.27-5.14-10.77-13.92-2.51-6.31-2.51-13.18 0-6.88 2.51-13.15 3.5-8.77 10.77-13.91 8.04-5.67 19.1-5.67 11.11 0 19.11 5.67zm-7.35 10.24q-4.93-3.37-11.76-3.37-6.83 0-11.71 3.37-4.45 3.07-6.53 8.34-1.6 3.94-1.6 8.48 0 4.54 1.6 8.51 2.08 5.23 6.53 8.3 4.88 3.42 11.71 3.42 6.83 0 11.76-3.42 4.41-3.07 6.53-8.3 1.56-3.97 1.56-8.51 0-4.54-1.56-8.48-2.12-5.27-6.53-8.34z"/>
					<path id="&lt;Compound Path&gt;" class="s1" d="m2768.02 1462.6v34.72q0 12.19-8.6 20.79-8.6 8.6-20.79 8.6-12.2 0-20.8-8.6-8.6-8.6-8.6-20.79v-34.72h12.54v34.72q0 7 4.92 11.93 4.97 4.97 11.94 4.97 7 0 11.93-4.97 4.93-4.93 4.93-11.93h0.04v-34.72z"/>
					<path id="&lt;Compound Path&gt;" class="s1" d="m2792.66 1462.64v50.15h32.47v12.54h-45v-62.69z"/>
					<path id="&lt;Compound Path&gt;" class="s1" d="m2897.63 1475.18q-3.55-1.38-7.44-1.38-8.34 0-14.26 5.92-5.93 5.92-5.93 14.27 0 8.38 5.93 14.31 5.92 5.92 14.26 5.92 3.89 0 7.44-1.43 3.63-1.42 6.4-4.02l8.51 9.12q-4.58 4.33-10.29 6.57-5.79 2.3-12.06 2.3-13.53 0-23.13-9.6-9.59-9.6-9.59-23.17 0-13.53 9.59-23.13 9.6-9.6 23.13-9.6 6.27 0 12.06 2.29 5.71 2.25 10.29 6.57l-8.51 9.13q-2.77-2.6-6.4-4.07z"/>
					<path id="&lt;Compound Path&gt;" fill-rule="evenodd" class="s1" d="m2922.92 1525.33v-62.64h23.82v-0.05q8.99 0 15.3 3.85 5.75 3.51 8.52 9.56 2.12 4.58 2.03 9.77-0.04 5.1-2.16 9.72-3.94 8.69-13.96 12.45 2.24 1.09 4.45 3.55l12.06 13.79h-16.64l-13.32-15.22h-7.56v15.22zm12.53-50.19v22.52h11.29q9.03 0 12.32-7.26 1.03-2.33 1.08-4.71 0-2.38-0.91-4.41-2.81-6.1-12.49-6.1v-0.04z"/>
					<path id="&lt;Compound Path&gt;" fill-rule="evenodd" class="s1" d="m2977.86 1525.33l31.09-65.37 31.08 65.37h-13.7l-4.89-10.29h-24.99l-4.88 10.29zm39.03-19.84l-3.84-8.09q-1.3-2.72-4.11-9.55-0.69 1.47-1.99 4.67-1.3 3.15-2.03 4.75l-3.93 8.22z"/>
					<path id="&lt;Compound Path&gt;" class="s1" d="m3091.26 1475.18h-30.91v10.98h27.62v12.54h-27.62v26.63h-12.54v-62.69h43.45z"/>
					<path id="&lt;Compound Path&gt;" class="s1" d="m3127.01 1475.18v50.15h-12.54v-50.15h-16.99v-12.54h46.52v12.54z"/>
				</g>
			</g>
			<g id="&lt;Group&gt;">
				<g id="&lt;Group&gt;">
					<path id="&lt;Path&gt;" class="s1" d="m2534.6 1499.53h-15.48v-42.63c0-13.21-10.75-23.96-23.96-23.96-13.22 0-23.97 10.75-23.97 23.96v42.63h-15.48v-42.63c0-21.75 17.69-39.44 39.45-39.44 21.75 0 39.44 17.69 39.44 39.44z"/>
				</g>
				<g id="&lt;Group&gt;">
					<path id="&lt;Path&gt;" class="s1" d="m2463.45 1550.54c-21.75 0-39.45-17.69-39.45-39.44v-42.63h15.48v42.63c0 13.21 10.75 23.96 23.97 23.96 13.21 0 23.97-10.75 23.97-23.96v-42.63h15.48v42.63c0 21.75-17.7 39.44-39.45 39.44z"/>
				</g>
			</g>
		</g>
	</g>
</svg>